<svg xmlns="http://www.w3.org/2000/svg" width="16.131" height="19.2" viewBox="0 0 16.131 19.2">
  <g id="recipe-book" transform="translate(-7.7 0.1)">
    <path id="Path_2539" data-name="Path 2539" d="M28.915,16.579a2.168,2.168,0,0,0-.751.132,2.5,2.5,0,0,0-4.019,0,2.168,2.168,0,0,0-.751-.132A2.392,2.392,0,0,0,21.1,19.063a2.456,2.456,0,0,0,1.685,2.4v3.495a.547.547,0,0,0,.223.44,6.625,6.625,0,0,0,3.227.857,6.39,6.39,0,0,0,3.166-.857.536.536,0,0,0,.244-.44V21.436a2.478,2.478,0,0,0,1.583-2.374,2.436,2.436,0,0,0-2.314-2.484Zm.69,3.8a.464.464,0,0,0-.426-.352.479.479,0,0,0-.467.505v4.132a5.554,5.554,0,0,1-5.034,0V21.546a2.243,2.243,0,0,0,.954-.374.5.5,0,0,0,.142-.681.425.425,0,0,0-.629-.154,1.336,1.336,0,0,1-.751.242,1.5,1.5,0,0,1,0-2.989,1.273,1.273,0,0,1,.284.044,2.974,2.974,0,0,0-.162.945.493.493,0,0,0,.467.505.479.479,0,0,0,.467-.505,1.71,1.71,0,1,1,3.41,0,1.885,1.885,0,0,1-.629,1.429.521.521,0,0,0-.061.7.448.448,0,0,0,.65.066,2.955,2.955,0,0,0,.974-2.2,2.871,2.871,0,0,0-.162-.945,1.273,1.273,0,0,1,.284-.044,1.443,1.443,0,0,1,1.38,1.495,1.551,1.551,0,0,1-.69,1.3Z" transform="translate(-10.377 -12.615)" fill="#ff9560" stroke="#fe9460" stroke-width="0.2"/>
    <path id="Path_2540" data-name="Path 2540" d="M21.977,0H8.259A.468.468,0,0,0,7.8.48V17a2,2,0,0,0,2,2h12.4a.48.48,0,1,0,0-.96H9.784a1.044,1.044,0,0,1,0-2.088H23.23a.486.486,0,0,0,.48-.48S23.731,1.9,23.731,1.8A1.588,1.588,0,0,0,21.977,0Zm.793,15.012H9.784A1.963,1.963,0,0,0,8.74,15.3V.94H21.977a.858.858,0,0,1,.668.23.8.8,0,0,1,.146.522c0,.084-.021,13.321-.021,13.321Z" transform="translate(0 0)" fill="#ff9560" stroke="#fe9460" stroke-width="0.2"/>
  </g>
</svg>
