<svg xmlns="http://www.w3.org/2000/svg" xmlns:xlink="http://www.w3.org/1999/xlink" width="17.55" height="17.55" viewBox="0 0 17.55 17.55">
  <defs>
    <clipPath id="clip-path">
      <path id="path81" d="M0-682.665H17.55v17.55H0Z" transform="translate(0 682.665)" fill="#5181aa"/>
    </clipPath>
  </defs>
  <g id="g75" transform="translate(0 682.665)">
    <g id="g77" transform="translate(0 -682.665)">
      <g id="g79" clip-path="url(#clip-path)">
        <g id="g85" transform="translate(0.957 0.686)">
          <path id="path87" d="M-296.3-204.384a2.7,2.7,0,0,0-2.7,2.7,2.7,2.7,0,0,0,2.7,2.7,2.7,2.7,0,0,0,2.7-2.7A2.7,2.7,0,0,0-296.3-204.384Zm7.569.772-.73.6a1.714,1.714,0,0,0,0,2.646l.73.6a.686.686,0,0,1,.158.872l-1.442,2.5a.686.686,0,0,1-.834.3l-.886-.332a1.714,1.714,0,0,0-2.292,1.323l-.155.933a.686.686,0,0,1-.676.573h-2.883a.686.686,0,0,1-.676-.573l-.155-.933a1.714,1.714,0,0,0-2.292-1.323l-.885.332a.686.686,0,0,1-.834-.3l-1.442-2.5a.686.686,0,0,1,.158-.872l.73-.6a1.714,1.714,0,0,0,0-2.646l-.73-.6a.686.686,0,0,1-.158-.872l1.442-2.5a.686.686,0,0,1,.834-.3l.886.332a1.714,1.714,0,0,0,2.292-1.323l.155-.933a.685.685,0,0,1,.676-.573h2.883a.686.686,0,0,1,.676.573l.155.933a1.714,1.714,0,0,0,2.292,1.323l.886-.332a.686.686,0,0,1,.834.3l1.442,2.5A.686.686,0,0,1-288.734-203.612Z" transform="translate(304.121 209.777)" fill="none" stroke="#5181aa" stroke-linecap="round" stroke-linejoin="round" stroke-width="1.3"/>
        </g>
      </g>
    </g>
  </g>
</svg>
