<svg xmlns="http://www.w3.org/2000/svg" width="19.678" height="17.317" viewBox="0 0 19.678 17.317">
  <g id="shopping-cart" transform="translate(0.1 0.1)">
    <path id="Path_2557" data-name="Path 2557" d="M6.275,11.412H16.622A.571.571,0,0,0,17.171,11L19.453,3.01a.571.571,0,0,0-.549-.727H4.959L4.551.447A.571.571,0,0,0,3.994,0H.57a.571.571,0,0,0,0,1.141H3.536l2.06,9.27a1.712,1.712,0,0,0,.68,3.282H16.622a.571.571,0,0,0,0-1.141H6.276a.571.571,0,0,1,0-1.141ZM18.148,3.424l-1.956,6.847H6.734L5.212,3.424Zm0,0" transform="translate(0)" fill="#76b965" stroke="#76b965" stroke-width="0.2"/>
    <path id="Path_2558" data-name="Path 2558" d="M150,361.712A1.712,1.712,0,1,0,151.712,360,1.714,1.714,0,0,0,150,361.712Zm1.712-.57a.571.571,0,1,1-.571.57A.571.571,0,0,1,151.712,361.141Zm0,0" transform="translate(-144.294 -346.306)" fill="#76b965" stroke="#76b965" stroke-width="0.2"/>
    <path id="Path_2559" data-name="Path 2559" d="M362,361.712A1.712,1.712,0,1,0,363.712,360,1.714,1.714,0,0,0,362,361.712Zm1.712-.57a.571.571,0,1,1-.57.57A.571.571,0,0,1,363.712,361.141Zm0,0" transform="translate(-348.23 -346.306)" fill="#76b965" stroke="#76b965" stroke-width="0.2"/>
  </g>
</svg>
