<svg xmlns="http://www.w3.org/2000/svg" xmlns:xlink="http://www.w3.org/1999/xlink" width="71" height="71" viewBox="0 0 71 71">
  <defs>
    <linearGradient id="linear-gradient" x1="0.5" x2="0.5" y2="1" gradientUnits="objectBoundingBox">
      <stop offset="0" stop-color="#9c64cc"/>
      <stop offset="1" stop-color="#6c4199"/>
    </linearGradient>
    <filter id="Ellipse_1" x="0" y="0" width="71" height="71" filterUnits="userSpaceOnUse">
      <feOffset dy="3" input="SourceAlpha"/>
      <feGaussianBlur stdDeviation="3" result="blur"/>
      <feFlood flood-opacity="0.161"/>
      <feComposite operator="in" in2="blur"/>
      <feComposite in="SourceGraphic"/>
    </filter>
  </defs>
  <g id="Group_3919" data-name="Group 3919" transform="translate(-79 -255)">
    <g transform="matrix(1, 0, 0, 1, 79, 255)" filter="url(#Ellipse_1)">
      <circle id="Ellipse_1-2" data-name="Ellipse 1" cx="26.5" cy="26.5" r="26.5" transform="translate(9 6)" fill="url(#linear-gradient)"/>
    </g>
    <g id="apple-logo" transform="translate(103 274)">
      <g id="Group_3364" data-name="Group 3364" transform="translate(0)">
        <path id="Path_2603" data-name="Path 2603" d="M16.311,0h.182a5.473,5.473,0,0,1-1.378,4.124A4.272,4.272,0,0,1,11.354,5.89a5.308,5.308,0,0,1,1.4-4A6.059,6.059,0,0,1,16.311,0Z" transform="translate(0.01)" fill="#fff"/>
        <path id="Path_2604" data-name="Path 2604" d="M24.428,19.274v.055a16.394,16.394,0,0,1-2.28,4.488c-.869,1.222-1.935,2.866-3.837,2.866-1.644,0-2.735-1.079-4.42-1.109-1.782-.029-2.762.9-4.391,1.137H8.945A4.962,4.962,0,0,1,6.079,24.7,17.868,17.868,0,0,1,2.1,14.533V13.282a8.239,8.239,0,0,1,3.5-6.726,5.821,5.821,0,0,1,3.973-.939,9.835,9.835,0,0,1,1.947.57,5.294,5.294,0,0,0,1.946.6,4.6,4.6,0,0,0,1.365-.426,8.246,8.246,0,0,1,4.391-.8,6.075,6.075,0,0,1,4.477,2.726,5.9,5.9,0,0,0-2.918,5.82A6,6,0,0,0,24.428,19.274Z" transform="translate(-2.104 0.671)" fill="#fff"/>
      </g>
    </g>
  </g>
</svg>
