<svg xmlns="http://www.w3.org/2000/svg" width="15.75" height="16.153" viewBox="0 0 15.75 16.153">
  <g id="Ardent_White" transform="translate(0.546 0.5)">
    <path id="Path_2599" data-name="Path 2599" d="M26.164,1.4a6.645,6.645,0,0,0,1.668,7.943,2.975,2.975,0,0,1-.514-1.083,3.211,3.211,0,0,1,.1-2.131,6.649,6.649,0,0,1,7.672-4.511q-.28-.225-.589-.426a7.352,7.352,0,0,0-8.334.208" transform="translate(-23.13 0)" fill="none" stroke="#6c4199" stroke-width="1"/>
    <path id="Path_2600" data-name="Path 2600" d="M1.192,17.008a7.342,7.342,0,0,0-.7,6.647,6.646,6.646,0,0,0,8.129.424,3.377,3.377,0,0,1-.691.2,3.31,3.31,0,0,1-3.183-1.228A6.644,6.644,0,0,1,3.034,15.07a7.345,7.345,0,0,0-1.842,1.938" transform="translate(0 -13.668)" fill="none" stroke="#6c4199" stroke-width="1"/>
    <path id="Path_2601" data-name="Path 2601" d="M15.387,80.727a3.3,3.3,0,0,1-2.018,2.882A6.645,6.645,0,0,1,5.22,83.2a7.358,7.358,0,0,0,10.171,3.938V80.72Z" transform="translate(-4.734 -73.211)" fill="none" stroke="#6c4199" stroke-width="1"/>
    <path id="Path_2602" data-name="Path 2602" d="M46.84,18.986a6.621,6.621,0,0,0-.77,1.626,3.3,3.3,0,0,1,6.371,1.223v7.444l2.923-1.658a1.979,1.979,0,0,0,1.125-2.032V21.652A7.336,7.336,0,0,0,53.74,16.1a6.647,6.647,0,0,0-6.9,2.882" transform="translate(-41.785 -14.484)" fill="none" stroke="#6c4199" stroke-width="1"/>
  </g>
</svg>
