<svg id="help" xmlns="http://www.w3.org/2000/svg" width="17.132" height="17.132" viewBox="0 0 17.132 17.132">
  <g id="Group_3334" data-name="Group 3334">
    <g id="Group_3333" data-name="Group 3333">
      <path id="Path_2578" data-name="Path 2578" d="M222.6,343.22a.948.948,0,0,0,0,1.9.948.948,0,0,0,0-1.9Z" transform="translate(-214.298 -331.81)" fill="#1b90ff"/>
      <path id="Path_2579" data-name="Path 2579" d="M186.448,140c-1.662,0-2.426.985-2.426,1.65a.706.706,0,0,0,.739.7c.665,0,.394-.948,1.65-.948.616,0,1.108.271,1.108.837,0,.665-.69,1.047-1.1,1.392a2.254,2.254,0,0,0-.825,1.872c0,.64.172.825.677.825.6,0,.727-.271.727-.5a1.546,1.546,0,0,1,.69-1.539,3.152,3.152,0,0,0,1.379-2.254C189.071,140.876,188.024,140,186.448,140Z" transform="translate(-177.997 -135.458)" fill="#1b90ff"/>
      <path id="Path_2580" data-name="Path 2580" d="M8.566,0A8.562,8.562,0,0,0,0,8.566v7.9a.669.669,0,0,0,.669.669h7.9A8.566,8.566,0,0,0,8.566,0Zm0,15.794H1.338V8.566a7.228,7.228,0,1,1,7.228,7.228Z" fill="#1b90ff"/>
    </g>
  </g>
</svg>
