<svg xmlns="http://www.w3.org/2000/svg" width="18.32" height="18.32" viewBox="0 0 18.32 18.32">
  <g id="Layer_17" data-name="Layer 17" transform="translate(-2 -2)">
    <path id="Path_2581" data-name="Path 2581" d="M18.357,17.7H6.58A1.963,1.963,0,0,1,4.617,15.74V3.963A1.963,1.963,0,0,1,6.58,2H18.357A1.963,1.963,0,0,1,20.32,3.963V15.74A1.963,1.963,0,0,1,18.357,17.7ZM6.58,3.309a.654.654,0,0,0-.654.654V15.74a.654.654,0,0,0,.654.654H18.357a.654.654,0,0,0,.654-.654V3.963a.654.654,0,0,0-.654-.654ZM17.7,19.666a.654.654,0,0,0-.654-.654H3.963a.654.654,0,0,1-.654-.654V5.271A.654.654,0,1,0,2,5.271V18.357A1.963,1.963,0,0,0,3.963,20.32H17.048A.654.654,0,0,0,17.7,19.666ZM9.851,13.123a.651.651,0,0,1-.654-.654V7.234a.654.654,0,0,1,.949-.582L15.38,9.269a.654.654,0,0,1,0,1.165l-5.234,2.617A.654.654,0,0,1,9.851,13.123Zm.654-4.829v3.114L13.62,9.851Z" transform="translate(0 0)" fill="#f1bd2e"/>
  </g>
</svg>
