<svg xmlns="http://www.w3.org/2000/svg" width="26.89" height="27.778" viewBox="0 0 26.89 27.778">
  <g id="sign-out" transform="translate(-2.75 -2.75)">
    <path id="Path_2582" data-name="Path 2582" d="M17.6,28.651A1.945,1.945,0,0,0,15.6,26.774H6.764V6.5H15.6A1.945,1.945,0,0,0,17.6,4.627,1.945,1.945,0,0,0,15.6,2.75H6.363A3.5,3.5,0,0,0,2.75,6.128V27.15a3.5,3.5,0,0,0,3.613,3.378H15.6A1.945,1.945,0,0,0,17.6,28.651Z" transform="translate(0 0)" fill="#db5858"/>
    <path id="Path_2583" data-name="Path 2583" d="M19.241,18.04l3.183-2.63H10.007A1.858,1.858,0,0,1,8,13.753a1.858,1.858,0,0,1,2.007-1.658H22.424l-3.183-2.63a1.463,1.463,0,0,1,0-2.345,2.317,2.317,0,0,1,2.839,0l6.61,5.46a1.463,1.463,0,0,1,0,2.345l-6.61,5.46a2.317,2.317,0,0,1-2.839,0A1.463,1.463,0,0,1,19.241,18.04Z" transform="translate(0.363 2.353)" fill="#db5858"/>
  </g>
</svg>
