<svg xmlns="http://www.w3.org/2000/svg" xmlns:xlink="http://www.w3.org/1999/xlink" width="71" height="71" viewBox="0 0 71 71">
  <defs>
    <linearGradient id="linear-gradient" x1="0.5" x2="0.5" y2="1" gradientUnits="objectBoundingBox">
      <stop offset="0" stop-color="#9c64cc"/>
      <stop offset="1" stop-color="#6c4199"/>
    </linearGradient>
    <filter id="Ellipse_2" x="0" y="0" width="71" height="71" filterUnits="userSpaceOnUse">
      <feOffset dy="3" input="SourceAlpha"/>
      <feGaussianBlur stdDeviation="3" result="blur"/>
      <feFlood flood-opacity="0.161"/>
      <feComposite operator="in" in2="blur"/>
      <feComposite in="SourceGraphic"/>
    </filter>
  </defs>
  <g id="Group_3920" data-name="Group 3920" transform="translate(-159 -255)">
    <g transform="matrix(1, 0, 0, 1, 159, 255)" filter="url(#Ellipse_2)">
      <circle id="Ellipse_2-2" data-name="Ellipse 2" cx="26.5" cy="26.5" r="26.5" transform="translate(9 6)" fill="url(#linear-gradient)"/>
    </g>
    <path id="google" d="M0,13.691A13.707,13.707,0,0,1,13.691,0a13.565,13.565,0,0,1,8.346,2.837L18.855,6.97a8.393,8.393,0,0,0-5.164-1.754A8.476,8.476,0,1,0,21.756,16.3H13.691V11.083H27.383v2.608A13.691,13.691,0,0,1,0,13.691Z" transform="translate(181.101 273.779)" fill="#fff"/>
  </g>
</svg>
