<svg xmlns="http://www.w3.org/2000/svg" width="16" height="16" viewBox="0 0 16 16">
  <g id="sign-out" transform="translate(-2.5 -2.5)">
    <path id="Path_2582" data-name="Path 2582" d="M12,17.2a1.162,1.162,0,0,0-1.25-1.047H5.25V4.845h5.5A1.162,1.162,0,0,0,12,3.8,1.162,1.162,0,0,0,10.75,2.75H5A2.092,2.092,0,0,0,2.75,4.635v11.73A2.092,2.092,0,0,0,5,18.25h5.75A1.162,1.162,0,0,0,12,17.2Z" transform="translate(0 0)" fill="#db5858" stroke="#fff" stroke-width="0.5"/>
    <path id="Path_2583" data-name="Path 2583" d="M15,12.829,16.982,11.4H9.25C8.56,11.4,8,11,8,10.5s.56-.9,1.25-.9h7.732L15,8.171A.737.737,0,0,1,15,6.9a1.613,1.613,0,0,1,1.768,0l4.116,2.966a.737.737,0,0,1,0,1.274L16.768,14.1A1.613,1.613,0,0,1,15,14.1.737.737,0,0,1,15,12.829Z" transform="translate(-3 0)" fill="#db5858" stroke="#fff" stroke-width="0.5"/>
  </g>
</svg>
