<svg xmlns="http://www.w3.org/2000/svg" width="15.715" height="15.715" viewBox="0 0 15.715 15.715">
  <g id="Layer_1" transform="translate(-2 -2)">
    <g id="Group_3392" data-name="Group 3392" transform="translate(10.419 9.296)">
      <path id="Path_2605" data-name="Path 2605" d="M22.91,23.419H18.386A1.388,1.388,0,0,1,17,22.033V16.386A1.388,1.388,0,0,1,18.386,15H22.91A1.388,1.388,0,0,1,24.3,16.386v5.647A1.388,1.388,0,0,1,22.91,23.419Zm-4.525-7.3a.263.263,0,0,0-.263.263v5.647a.263.263,0,0,0,.263.263H22.91a.263.263,0,0,0,.263-.263V16.386a.263.263,0,0,0-.263-.263Z" transform="translate(-17 -15)" fill="#4870e2"/>
    </g>
    <g id="Group_3393" data-name="Group 3393" transform="translate(10.419 2)">
      <path id="Path_2606" data-name="Path 2606" d="M22.91,8.174H18.386A1.388,1.388,0,0,1,17,6.788v-3.4A1.388,1.388,0,0,1,18.386,2H22.91A1.388,1.388,0,0,1,24.3,3.386v3.4A1.388,1.388,0,0,1,22.91,8.174ZM18.386,3.122a.263.263,0,0,0-.263.263v3.4a.263.263,0,0,0,.263.263H22.91a.263.263,0,0,0,.263-.263v-3.4a.263.263,0,0,0-.263-.263Z" transform="translate(-17 -2)" fill="#4870e2"/>
    </g>
    <g id="Group_3394" data-name="Group 3394" transform="translate(2 2)">
      <path id="Path_2607" data-name="Path 2607" d="M7.91,10.419H3.386A1.388,1.388,0,0,1,2,9.033V3.386A1.388,1.388,0,0,1,3.386,2H7.91A1.388,1.388,0,0,1,9.3,3.386V9.033A1.388,1.388,0,0,1,7.91,10.419Zm-4.525-7.3a.263.263,0,0,0-.263.263V9.033a.263.263,0,0,0,.263.263H7.91a.263.263,0,0,0,.263-.263V3.386a.263.263,0,0,0-.263-.263Z" transform="translate(-2 -2)" fill="#4870e2"/>
    </g>
    <g id="Group_3395" data-name="Group 3395" transform="translate(2 11.541)">
      <path id="Path_2608" data-name="Path 2608" d="M7.91,25.174H3.386A1.388,1.388,0,0,1,2,23.788v-3.4A1.388,1.388,0,0,1,3.386,19H7.91A1.388,1.388,0,0,1,9.3,20.386v3.4A1.388,1.388,0,0,1,7.91,25.174ZM3.386,20.122a.263.263,0,0,0-.263.263v3.4a.263.263,0,0,0,.263.263H7.91a.263.263,0,0,0,.263-.263v-3.4a.263.263,0,0,0-.263-.263Z" transform="translate(-2 -19)" fill="#4870e2"/>
    </g>
  </g>
</svg>
